#N canvas 1266 585 988 734 12;
#X obj 331 537 dac~;
#X obj 403 404 tkchords;
#X obj 369 31 loadbang;
#X obj 315 403 tknoise;
#X obj 312 159 metro;
#X msg 386 70 24000;
#X floatatom 371 118 5 0 0 0 - - - 0;
#X obj 300 202 random 2;
#X obj 343 233 sel 0 1;
#X floatatom 264 237 5 0 0 0 - - - 0;
#X obj 397 342 tgl 19 0 empty empty empty 0 -10 0 12 #fcfcfc #000000 #000000 0 1;
#X obj 286 325 tgl 19 0 empty empty empty 0 -10 0 12 #fcfcfc #000000 #000000 0 1;
#X msg 320 309 stop;
#X msg 424 343 stop, f 6;
#X obj 437 142 random 72000;
#X text 27 37 (c) Thomas Kjelsrud 18.12.2022;
#X text 203 395 select mode;
#X text 30 75 Ambient generative meditation machine;
#X connect 1 0 0 0;
#X connect 1 1 0 1;
#X connect 2 0 5 0;
#X connect 2 0 4 0;
#X connect 3 0 0 0;
#X connect 3 1 0 1;
#X connect 4 0 7 0;
#X connect 4 0 14 0;
#X connect 5 0 6 0;
#X connect 6 0 4 1;
#X connect 7 0 8 0;
#X connect 7 0 9 0;
#X connect 8 0 11 0;
#X connect 8 0 12 0;
#X connect 8 1 10 0;
#X connect 8 1 13 0;
#X connect 10 0 1 0;
#X connect 11 0 3 0;
#X connect 12 0 10 0;
#X connect 13 0 11 0;
#X connect 14 0 6 0;
