#N canvas 161 23 1173 850 12;
#X obj 303 814 dac~;
#X obj 119 51 noise~;
#X obj 230 74 noise~;
#X obj 178 196 hip~;
#X floatatom 303 135 5 0 0 0 - - -;
#X obj 236 198 hip~;
#X obj 450 26 loadbang;
#X msg 324 85 200;
#N canvas 427 240 1073 616 delay 0;
#X obj 420 61 inlet~;
#X obj 323 59 inlet~;
#X obj 226 379 outlet~;
#X obj 409 389 outlet~;
#X obj 499 273 vd~ dright;
#X obj 300 269 vd~ dleft;
#X obj 315 239 sig~;
#X obj 567 244 sig~;
#X obj 514 15 loadbang;
#X floatatom 337 208 5 0 0 0 - - -;
#X obj 375 174 r dlytime;
#X floatatom 501 194 5 0 0 0 - - -;
#X obj 539 160 r dlytime;
#X obj 102 195 lop~ 800;
#X obj 450 219 lop~ 800;
#X obj 439 268 *~ 0.3;
#X obj 160 262 *~ 0.3;
#X obj 92 107 delwrite~ dleft 8000;
#X obj 449 111 delwrite~ dright 8000;
#X obj 486 331 bp~ 300;
#X obj 308 328 bp~ 300;
#X obj 82 154 hip~;
#X obj 469 151 hip~;
#X msg 176 141 500;
#X msg 563 138 500;
#X connect 0 0 3 0;
#X connect 0 0 18 0;
#X connect 1 0 2 0;
#X connect 1 0 17 0;
#X connect 4 0 19 0;
#X connect 5 0 20 0;
#X connect 6 0 5 0;
#X connect 7 0 4 0;
#X connect 8 0 23 0;
#X connect 8 0 24 0;
#X connect 9 0 6 0;
#X connect 10 0 9 0;
#X connect 11 0 7 0;
#X connect 12 0 11 0;
#X connect 13 0 21 0;
#X connect 14 0 22 0;
#X connect 15 0 14 0;
#X connect 16 0 13 0;
#X connect 19 0 3 0;
#X connect 19 0 15 0;
#X connect 20 0 2 0;
#X connect 20 0 16 0;
#X connect 21 0 17 0;
#X connect 22 0 18 0;
#X connect 23 0 21 1;
#X connect 24 0 22 1;
#X restore 264 745 pd delay;
#X obj 252 578 bitcrush;
#X obj 166 580 bitcrush;
#X obj 447 98 hsl 128 15 0 127 0 0 empty empty empty -2 -8 0 10 -262144
-1 -1 3100 1;
#X floatatom 381 373 5 0 0 0 - - -;
#N canvas 92 310 634 321 vfreeverb~ 0;
#N canvas 261 41 778 367 combfilters-left1 0;
#X obj 46 244 +~;
#X obj 61 219 *~ 0.3;
#X obj 61 194 lop~ 1000;
#X obj 231 244 +~;
#X obj 246 219 *~ 0.3;
#X obj 246 194 lop~ 1000;
#X obj 429 218 *~ 0.3;
#X obj 429 193 lop~ 1000;
#X obj 414 241 +~;
#X obj 610 218 *~ 0.3;
#X obj 610 193 lop~ 1000;
#X obj 595 241 +~;
#X obj 61 141 delread~ \$0-comb1left;
#X obj 246 142 delread~ \$0-comb2left;
#X obj 429 141 delread~ \$0-comb3left;
#X obj 610 141 delread~ \$0-comb4left;
#X obj 46 268 delwrite~ \$0-comb1left 100;
#X obj 231 268 delwrite~ \$0-comb2left 100;
#X obj 414 267 delwrite~ \$0-comb3left 100;
#X obj 595 267 delwrite~ \$0-comb4left 100;
#X obj 61 97 r \$0-comb1left;
#X obj 246 97 r \$0-comb2left;
#X obj 429 95 r \$0-comb3left;
#X obj 610 96 r \$0-comb4left;
#X obj 112 170 r \$0-frequency;
#X obj 297 170 r \$0-frequency;
#X obj 480 167 r \$0-frequency;
#X obj 661 167 r \$0-frequency;
#X obj 46 28 inlet~;
#X obj 338 326 outlet~;
#X floatatom 70 119 5 0 0 0 - - -;
#X floatatom 255 121 5 0 0 0 - - -;
#X floatatom 439 119 5 0 0 0 - - -;
#X floatatom 622 121 5 0 0 0 - - -;
#X obj 279 58 clip 0 0.99;
#X obj 279 29 r \$0-room;
#X connect 0 0 16 0;
#X connect 1 0 0 1;
#X connect 2 0 1 0;
#X connect 3 0 17 0;
#X connect 4 0 3 1;
#X connect 5 0 4 0;
#X connect 6 0 8 1;
#X connect 7 0 6 0;
#X connect 8 0 18 0;
#X connect 9 0 11 1;
#X connect 10 0 9 0;
#X connect 11 0 19 0;
#X connect 12 0 2 0;
#X connect 12 0 29 0;
#X connect 13 0 5 0;
#X connect 13 0 29 0;
#X connect 14 0 7 0;
#X connect 14 0 29 0;
#X connect 15 0 10 0;
#X connect 15 0 29 0;
#X connect 20 0 12 0;
#X connect 20 0 30 0;
#X connect 21 0 13 0;
#X connect 21 0 31 0;
#X connect 22 0 14 0;
#X connect 22 0 32 0;
#X connect 23 0 15 0;
#X connect 23 0 33 0;
#X connect 24 0 2 1;
#X connect 25 0 5 1;
#X connect 26 0 7 1;
#X connect 27 0 10 1;
#X connect 28 0 0 0;
#X connect 28 0 3 0;
#X connect 28 0 8 0;
#X connect 28 0 11 0;
#X connect 34 0 1 1;
#X connect 34 0 4 1;
#X connect 34 0 6 1;
#X connect 34 0 9 1;
#X connect 35 0 34 0;
#X restore 15 100 pd combfilters-left1;
#N canvas 27 56 358 650 diffusor-left 0;
#X obj 51 107 *~ 0.5;
#X obj 36 132 +~;
#X obj 66 132 -~;
#X obj 36 26 inlet~;
#X obj 81 238 *~ 0.5;
#X obj 66 263 +~;
#X obj 96 263 -~;
#X obj 111 368 *~ 0.5;
#X obj 96 393 +~;
#X obj 126 393 -~;
#X obj 141 498 *~ 0.5;
#X obj 126 523 +~;
#X obj 156 523 -~;
#X obj 156 605 outlet~;
#X text 95 28 freeverb's diffusor;
#X obj 156 576 hip~ 5;
#X floatatom 214 70 5 0 0 0 - - -;
#X floatatom 246 203 5 0 0 0 - - -;
#X floatatom 280 334 5 0 0 0 - - -;
#X floatatom 304 464 5 0 0 0 - - -;
#X obj 51 53 r \$0-allpass1left;
#X obj 51 80 delread~ \$0-allpass1left;
#X obj 36 158 delwrite~ \$0-allpass1left 40;
#X obj 81 186 r \$0-allpass2left;
#X obj 81 211 delread~ \$0-allpass2left;
#X obj 66 290 delwrite~ \$0-allpass2left 40;
#X obj 111 317 r \$0-allpass3left;
#X obj 111 341 delread~ \$0-allpass3left;
#X obj 96 420 delwrite~ \$0-allpass3left 40;
#X obj 141 447 r \$0-allpass4left;
#X obj 141 471 delread~ \$0-allpass4left;
#X obj 126 550 delwrite~ \$0-allpass4left 40;
#X connect 0 0 1 1;
#X connect 1 0 22 0;
#X connect 2 0 5 0;
#X connect 2 0 6 1;
#X connect 3 0 1 0;
#X connect 3 0 2 1;
#X connect 4 0 5 1;
#X connect 5 0 25 0;
#X connect 6 0 8 0;
#X connect 6 0 9 1;
#X connect 7 0 8 1;
#X connect 8 0 28 0;
#X connect 9 0 11 0;
#X connect 9 0 12 1;
#X connect 10 0 11 1;
#X connect 11 0 31 0;
#X connect 12 0 15 0;
#X connect 15 0 13 0;
#X connect 20 0 16 0;
#X connect 20 0 21 0;
#X connect 21 0 0 0;
#X connect 21 0 2 0;
#X connect 23 0 17 0;
#X connect 23 0 24 0;
#X connect 24 0 4 0;
#X connect 24 0 6 0;
#X connect 26 0 18 0;
#X connect 26 0 27 0;
#X connect 27 0 7 0;
#X connect 27 0 9 0;
#X connect 29 0 19 0;
#X connect 29 0 30 0;
#X connect 30 0 10 0;
#X connect 30 0 12 0;
#X restore 15 168 pd diffusor-left;
#N canvas 312 366 778 367 combfilters-left2 0;
#X obj 46 244 +~;
#X obj 61 219 *~ 0.3;
#X obj 61 194 lop~ 1000;
#X obj 231 244 +~;
#X obj 246 219 *~ 0.3;
#X obj 246 194 lop~ 1000;
#X obj 429 218 *~ 0.3;
#X obj 429 193 lop~ 1000;
#X obj 414 241 +~;
#X obj 610 218 *~ 0.3;
#X obj 610 193 lop~ 1000;
#X obj 595 241 +~;
#X obj 112 170 r \$0-frequency;
#X obj 297 170 r \$0-frequency;
#X obj 480 167 r \$0-frequency;
#X obj 661 167 r \$0-frequency;
#X obj 46 28 inlet~;
#X obj 338 326 outlet~;
#X obj 61 90 r \$0-comb5left;
#X obj 61 141 delread~ \$0-comb5left;
#X obj 46 268 delwrite~ \$0-comb5left 100;
#X obj 246 90 r \$0-comb6left;
#X obj 246 142 delread~ \$0-comb6left;
#X obj 231 268 delwrite~ \$0-comb6left 100;
#X obj 429 88 r \$0-comb7left;
#X obj 429 141 delread~ \$0-comb7left;
#X obj 414 267 delwrite~ \$0-comb7left 100;
#X obj 610 89 r \$0-comb8left;
#X obj 610 141 delread~ \$0-comb8left;
#X obj 595 267 delwrite~ \$0-comb8left 100;
#X floatatom 70 116 5 0 0 0 - - -;
#X floatatom 261 118 5 0 0 0 - - -;
#X floatatom 440 117 5 0 0 0 - - -;
#X floatatom 620 116 5 0 0 0 - - -;
#X obj 279 58 clip 0 0.99;
#X obj 279 28 r \$0-room;
#X connect 0 0 20 0;
#X connect 1 0 0 1;
#X connect 2 0 1 0;
#X connect 3 0 23 0;
#X connect 4 0 3 1;
#X connect 5 0 4 0;
#X connect 6 0 8 1;
#X connect 7 0 6 0;
#X connect 8 0 26 0;
#X connect 9 0 11 1;
#X connect 10 0 9 0;
#X connect 11 0 29 0;
#X connect 12 0 2 1;
#X connect 13 0 5 1;
#X connect 14 0 7 1;
#X connect 15 0 10 1;
#X connect 16 0 0 0;
#X connect 16 0 3 0;
#X connect 16 0 8 0;
#X connect 16 0 11 0;
#X connect 18 0 19 0;
#X connect 18 0 30 0;
#X connect 19 0 2 0;
#X connect 19 0 17 0;
#X connect 21 0 22 0;
#X connect 21 0 31 0;
#X connect 22 0 5 0;
#X connect 22 0 17 0;
#X connect 24 0 25 0;
#X connect 24 0 32 0;
#X connect 25 0 7 0;
#X connect 25 0 17 0;
#X connect 27 0 28 0;
#X connect 27 0 33 0;
#X connect 28 0 10 0;
#X connect 28 0 17 0;
#X connect 34 0 1 1;
#X connect 34 0 4 1;
#X connect 34 0 6 1;
#X connect 34 0 9 1;
#X connect 35 0 34 0;
#X restore 36 134 pd combfilters-left2;
#N canvas 261 41 778 367 combfilters-right1 0;
#X obj 46 244 +~;
#X obj 61 219 *~ 0.3;
#X obj 61 194 lop~ 1000;
#X obj 231 244 +~;
#X obj 246 219 *~ 0.3;
#X obj 246 194 lop~ 1000;
#X obj 429 218 *~ 0.3;
#X obj 429 193 lop~ 1000;
#X obj 414 241 +~;
#X obj 610 218 *~ 0.3;
#X obj 610 193 lop~ 1000;
#X obj 595 241 +~;
#X obj 112 170 r \$0-frequency;
#X obj 297 170 r \$0-frequency;
#X obj 480 167 r \$0-frequency;
#X obj 661 167 r \$0-frequency;
#X obj 46 28 inlet~;
#X obj 338 326 outlet~;
#X floatatom 70 119 5 0 0 0 - - -;
#X floatatom 255 121 5 0 0 0 - - -;
#X floatatom 439 119 5 0 0 0 - - -;
#X floatatom 622 121 5 0 0 0 - - -;
#X obj 61 141 delread~ \$0-comb1right;
#X obj 246 142 delread~ \$0-comb2right;
#X obj 429 141 delread~ \$0-comb3right;
#X obj 610 141 delread~ \$0-comb4right;
#X obj 61 97 r \$0-comb1right;
#X obj 246 97 r \$0-comb2right;
#X obj 429 95 r \$0-comb3right;
#X obj 610 97 r \$0-comb4right;
#X obj 46 268 delwrite~ \$0-comb1right 100;
#X obj 231 268 delwrite~ \$0-comb2right 100;
#X obj 414 267 delwrite~ \$0-comb3right 100;
#X obj 595 267 delwrite~ \$0-comb4right 100;
#X obj 279 58 clip 0 0.99;
#X obj 279 28 r \$0-room;
#X connect 0 0 30 0;
#X connect 1 0 0 1;
#X connect 2 0 1 0;
#X connect 3 0 31 0;
#X connect 4 0 3 1;
#X connect 5 0 4 0;
#X connect 6 0 8 1;
#X connect 7 0 6 0;
#X connect 8 0 32 0;
#X connect 9 0 11 1;
#X connect 10 0 9 0;
#X connect 11 0 33 0;
#X connect 12 0 2 1;
#X connect 13 0 5 1;
#X connect 14 0 7 1;
#X connect 15 0 10 1;
#X connect 16 0 0 0;
#X connect 16 0 3 0;
#X connect 16 0 8 0;
#X connect 16 0 11 0;
#X connect 22 0 2 0;
#X connect 22 0 17 0;
#X connect 23 0 5 0;
#X connect 23 0 17 0;
#X connect 24 0 7 0;
#X connect 24 0 17 0;
#X connect 25 0 10 0;
#X connect 25 0 17 0;
#X connect 26 0 18 0;
#X connect 26 0 22 0;
#X connect 27 0 19 0;
#X connect 27 0 23 0;
#X connect 28 0 20 0;
#X connect 28 0 24 0;
#X connect 29 0 21 0;
#X connect 29 0 25 0;
#X connect 34 0 1 1;
#X connect 34 0 4 1;
#X connect 34 0 6 1;
#X connect 34 0 9 1;
#X connect 35 0 34 0;
#X restore 208 99 pd combfilters-right1;
#N canvas 312 366 778 367 combfilters-right2 0;
#X obj 46 244 +~;
#X obj 61 219 *~ 0.3;
#X obj 61 194 lop~ 1000;
#X obj 231 244 +~;
#X obj 246 219 *~ 0.3;
#X obj 246 194 lop~ 1000;
#X obj 429 218 *~ 0.3;
#X obj 429 193 lop~ 1000;
#X obj 414 241 +~;
#X obj 610 218 *~ 0.3;
#X obj 610 193 lop~ 1000;
#X obj 595 241 +~;
#X obj 112 170 r \$0-frequency;
#X obj 297 170 r \$0-frequency;
#X obj 480 167 r \$0-frequency;
#X obj 661 167 r \$0-frequency;
#X obj 46 28 inlet~;
#X obj 338 326 outlet~;
#X floatatom 70 116 5 0 0 0 - - -;
#X floatatom 261 118 5 0 0 0 - - -;
#X floatatom 440 117 5 0 0 0 - - -;
#X floatatom 620 116 5 0 0 0 - - -;
#X obj 279 58 clip 0 0.99;
#X obj 61 90 r \$0-comb5right;
#X obj 246 90 r \$0-comb6right;
#X obj 429 88 r \$0-comb7right;
#X obj 610 89 r \$0-comb8right;
#X obj 61 141 delread~ \$0-comb5right;
#X obj 246 142 delread~ \$0-comb6right;
#X obj 429 141 delread~ \$0-comb7right;
#X obj 610 141 delread~ \$0-comb8right;
#X obj 46 268 delwrite~ \$0-comb5right 100;
#X obj 231 268 delwrite~ \$0-comb6right 100;
#X obj 414 267 delwrite~ \$0-comb7right 100;
#X obj 595 267 delwrite~ \$0-comb8right 100;
#X obj 279 28 r \$0-room;
#X connect 0 0 31 0;
#X connect 1 0 0 1;
#X connect 2 0 1 0;
#X connect 3 0 32 0;
#X connect 4 0 3 1;
#X connect 5 0 4 0;
#X connect 6 0 8 1;
#X connect 7 0 6 0;
#X connect 8 0 33 0;
#X connect 9 0 11 1;
#X connect 10 0 9 0;
#X connect 11 0 34 0;
#X connect 12 0 2 1;
#X connect 13 0 5 1;
#X connect 14 0 7 1;
#X connect 15 0 10 1;
#X connect 16 0 0 0;
#X connect 16 0 3 0;
#X connect 16 0 8 0;
#X connect 16 0 11 0;
#X connect 22 0 1 1;
#X connect 22 0 4 1;
#X connect 22 0 6 1;
#X connect 22 0 9 1;
#X connect 23 0 18 0;
#X connect 23 0 27 0;
#X connect 24 0 19 0;
#X connect 24 0 28 0;
#X connect 25 0 20 0;
#X connect 25 0 29 0;
#X connect 26 0 21 0;
#X connect 26 0 30 0;
#X connect 27 0 2 0;
#X connect 27 0 17 0;
#X connect 28 0 5 0;
#X connect 28 0 17 0;
#X connect 29 0 7 0;
#X connect 29 0 17 0;
#X connect 30 0 10 0;
#X connect 30 0 17 0;
#X connect 35 0 22 0;
#X restore 225 133 pd combfilters-right2;
#N canvas 27 56 358 650 diffusor-right 0;
#X obj 51 107 *~ 0.5;
#X obj 36 132 +~;
#X obj 66 132 -~;
#X obj 36 26 inlet~;
#X obj 81 238 *~ 0.5;
#X obj 66 263 +~;
#X obj 96 263 -~;
#X obj 111 368 *~ 0.5;
#X obj 96 393 +~;
#X obj 126 393 -~;
#X obj 141 498 *~ 0.5;
#X obj 126 523 +~;
#X obj 156 523 -~;
#X obj 156 605 outlet~;
#X text 95 28 freeverb's diffusor;
#X obj 156 576 hip~ 5;
#X floatatom 214 70 5 0 0 0 - - -;
#X floatatom 244 203 5 0 0 0 - - -;
#X floatatom 280 334 5 0 0 0 - - -;
#X floatatom 304 464 5 0 0 0 - - -;
#X obj 51 53 r \$0-allpass1right;
#X obj 51 80 delread~ \$0-allpass1right;
#X obj 36 158 delwrite~ \$0-allpass1right 40;
#X obj 81 186 r \$0-allpass2right;
#X obj 81 211 delread~ \$0-allpass2right;
#X obj 66 290 delwrite~ \$0-allpass2right 40;
#X obj 111 317 r \$0-allpass3right;
#X obj 111 341 delread~ \$0-allpass3right;
#X obj 96 420 delwrite~ \$0-allpass3right 40;
#X obj 141 447 r \$0-allpass4right;
#X obj 141 471 delread~ \$0-allpass4right;
#X obj 126 550 delwrite~ \$0-allpass4right 40;
#X connect 0 0 1 1;
#X connect 1 0 22 0;
#X connect 2 0 5 0;
#X connect 2 0 6 1;
#X connect 3 0 1 0;
#X connect 3 0 2 1;
#X connect 4 0 5 1;
#X connect 5 0 25 0;
#X connect 6 0 8 0;
#X connect 6 0 9 1;
#X connect 7 0 8 1;
#X connect 8 0 28 0;
#X connect 9 0 11 0;
#X connect 9 0 12 1;
#X connect 10 0 11 1;
#X connect 11 0 31 0;
#X connect 12 0 15 0;
#X connect 15 0 13 0;
#X connect 20 0 16 0;
#X connect 20 0 21 0;
#X connect 21 0 0 0;
#X connect 21 0 2 0;
#X connect 23 0 17 0;
#X connect 23 0 24 0;
#X connect 24 0 4 0;
#X connect 24 0 6 0;
#X connect 26 0 18 0;
#X connect 26 0 27 0;
#X connect 27 0 7 0;
#X connect 27 0 9 0;
#X connect 29 0 19 0;
#X connect 29 0 30 0;
#X connect 30 0 10 0;
#X connect 30 0 12 0;
#X restore 208 169 pd diffusor-right;
#X obj 208 61 *~ 0.015;
#X obj 15 226 *~ 1;
#X obj 208 228 *~ 1;
#X obj 94 228 *~ 1;
#X obj 169 228 *~ 1;
#X obj 115 202 r \$0-dry;
#X obj 229 203 r \$0-wet;
#X obj 36 201 r \$0-wet;
#X obj 94 14 inlet~;
#X obj 208 14 inlet~;
#X obj 15 268 outlet~;
#X obj 169 269 outlet~;
#X obj 312 14 inlet;
#X obj 374 14 inlet;
#X obj 462 14 inlet;
#X obj 544 16 inlet;
#N canvas 0 22 207 207 room 0;
#X obj 32 35 inlet;
#X obj 32 63 * 0.28;
#X obj 32 94 + 0.7;
#X obj 32 160 outlet;
#X text 80 65 scaleroom;
#X text 76 94 offsetroom;
#X obj 47 126 s \$0-room;
#X connect 0 0 1 0;
#X connect 1 0 2 0;
#X connect 2 0 3 0;
#X connect 2 0 6 0;
#X restore 312 45 pd room;
#N canvas 684 169 244 376 frequency 0;
#X obj 60 222 samplerate~;
#X obj 33 8 inlet;
#X obj 33 194 t f b;
#X obj 33 249 *;
#X obj 53 303 s \$0-frequency;
#X obj 33 327 outlet;
#X obj 33 64 * 0.4;
#X text 76 66 scaledamp;
#X obj 33 38 clip 0 2;
#X obj 33 90 t b f;
#X obj 33 141 -;
#X msg 33 116 1;
#X obj 33 168 abs;
#X obj 33 275 * 0.5;
#X text 153 303 for [lop~];
#X connect 0 0 3 1;
#X connect 1 0 8 0;
#X connect 2 0 3 0;
#X connect 2 1 0 0;
#X connect 3 0 13 0;
#X connect 6 0 9 0;
#X connect 8 0 6 0;
#X connect 9 0 11 0;
#X connect 9 1 10 1;
#X connect 10 0 12 0;
#X connect 11 0 10 0;
#X connect 12 0 2 0;
#X connect 13 0 5 0;
#X connect 13 0 4 0;
#X restore 374 45 pd frequency;
#N canvas 0 22 170 187 scalewet 0;
#X obj 22 42 inlet;
#X obj 22 143 outlet;
#X obj 22 73 * 3;
#X text 49 74 scalewet;
#X obj 40 112 s \$0-wet;
#X connect 0 0 2 0;
#X connect 2 0 1 0;
#X connect 2 0 4 0;
#X restore 544 45 pd scalewet;
#N canvas 0 22 220 198 scaledry 0;
#X obj 32 74 * 2;
#X obj 32 40 inlet;
#X obj 32 141 outlet;
#X text 58 75 scaledry;
#X obj 41 105 s \$0-dry;
#X connect 0 0 2 0;
#X connect 0 0 4 0;
#X connect 1 0 0 0;
#X restore 462 45 pd scaledry;
#X floatatom 312 70 5 0 0 0 - - -;
#X floatatom 374 70 10 0 0 0 - - -;
#X floatatom 462 69 5 0 0 0 - - -;
#X floatatom 544 69 5 0 0 0 - - -;
#N canvas 405 27 635 684 tuning 0;
#X msg 332 81 1139 \, 1211 \, 1300 \, 1379 \, 1445 \, 1514 \, 1580
\, 1640;
#X text 72 57 combfilter tunings left;
#X text 377 56 combfilter tunings right;
#X text 71 360 allpass tunings left;
#X text 383 355 allpass tunings right;
#N canvas 243 170 195 233 sampstoms 0;
#X obj 27 21 inlet;
#X obj 54 86 samplerate~;
#X obj 27 111 /;
#X obj 27 57 t f b;
#X obj 27 136 * 1000;
#X obj 27 162 outlet;
#X connect 0 0 3 0;
#X connect 1 0 2 1;
#X connect 2 0 4 0;
#X connect 3 0 2 0;
#X connect 3 1 1 0;
#X connect 4 0 5 0;
#X restore 30 107 pd sampstoms;
#X msg 30 82 1116 \, 1188 \, 1277 \, 1356 \, 1422 \, 1491 \, 1557 \,
1617;
#X obj 57 188 +;
#X msg 57 159 1;
#X obj 30 135 t f b;
#X obj 87 188 f;
#X obj 30 56 t b b;
#X msg 87 159 0;
#X obj 57 212 pack f \$0;
#X msg 57 238 \$2-comb\$1left;
#X obj 30 282 s;
#X obj 57 265 symbol;
#N canvas 0 22 195 233 sampstoms 0;
#X obj 27 21 inlet;
#X obj 54 86 samplerate~;
#X obj 27 111 /;
#X obj 27 57 t f b;
#X obj 27 136 * 1000;
#X obj 27 162 outlet;
#X connect 0 0 3 0;
#X connect 1 0 2 1;
#X connect 2 0 4 0;
#X connect 3 0 2 0;
#X connect 3 1 1 0;
#X connect 4 0 5 0;
#X restore 332 107 pd sampstoms;
#X obj 359 188 +;
#X msg 359 159 1;
#X obj 332 135 t f b;
#X obj 389 188 f;
#X msg 389 159 0;
#X obj 359 212 pack f \$0;
#X obj 332 282 s;
#X obj 359 265 symbol;
#X obj 332 56 t b b;
#X msg 359 238 \$2-comb\$1right;
#X obj 30 360 t b b;
#N canvas 0 22 195 233 sampstoms 0;
#X obj 27 21 inlet;
#X obj 54 86 samplerate~;
#X obj 27 111 /;
#X obj 27 57 t f b;
#X obj 27 136 * 1000;
#X obj 27 162 outlet;
#X connect 0 0 3 0;
#X connect 1 0 2 1;
#X connect 2 0 4 0;
#X connect 3 0 2 0;
#X connect 3 1 1 0;
#X connect 4 0 5 0;
#X restore 30 411 pd sampstoms;
#X obj 57 492 +;
#X msg 57 463 1;
#X obj 30 439 t f b;
#X obj 87 492 f;
#X msg 87 463 0;
#X obj 57 516 pack f \$0;
#X obj 30 586 s;
#X obj 57 569 symbol;
#X obj 334 356 t b b;
#N canvas 0 22 195 233 sampstoms 0;
#X obj 27 21 inlet;
#X obj 54 86 samplerate~;
#X obj 27 111 /;
#X obj 27 57 t f b;
#X obj 27 136 * 1000;
#X obj 27 162 outlet;
#X connect 0 0 3 0;
#X connect 1 0 2 1;
#X connect 2 0 4 0;
#X connect 3 0 2 0;
#X connect 3 1 1 0;
#X connect 4 0 5 0;
#X restore 334 407 pd sampstoms;
#X obj 361 488 +;
#X msg 361 459 1;
#X obj 334 435 t f b;
#X obj 391 488 f;
#X msg 391 459 0;
#X obj 361 512 pack f \$0;
#X obj 334 582 s;
#X obj 361 565 symbol;
#X obj 30 22 loadbang;
#X obj 332 27 loadbang;
#X obj 30 334 loadbang;
#X obj 334 331 loadbang;
#X obj 268 41 bng 15 250 50 0 empty empty empty 17 7 0 10 -262144 -1
-1;
#X msg 30 386 225 \, 556 \, 441 \, 341;
#X msg 334 380 248 \, 579 \, 464 \, 364;
#X msg 57 542 \$2-allpass\$1left;
#X msg 361 539 \$2-allpass\$1right;
#X text 27 624 Original Freeverb delay line lengths are converted to
milliseconds \, based on samplerate.;
#X connect 0 0 17 0;
#X connect 5 0 9 0;
#X connect 6 0 5 0;
#X connect 7 0 10 0;
#X connect 7 0 13 0;
#X connect 8 0 7 0;
#X connect 9 0 15 0;
#X connect 9 1 8 0;
#X connect 10 0 7 1;
#X connect 11 0 6 0;
#X connect 11 1 12 0;
#X connect 12 0 10 0;
#X connect 13 0 14 0;
#X connect 14 0 16 0;
#X connect 16 0 15 1;
#X connect 17 0 20 0;
#X connect 18 0 21 0;
#X connect 18 0 23 0;
#X connect 19 0 18 0;
#X connect 20 0 24 0;
#X connect 20 1 19 0;
#X connect 21 0 18 1;
#X connect 22 0 21 0;
#X connect 23 0 27 0;
#X connect 25 0 24 1;
#X connect 26 0 0 0;
#X connect 26 1 22 0;
#X connect 27 0 25 0;
#X connect 28 0 53 0;
#X connect 28 1 34 0;
#X connect 29 0 32 0;
#X connect 30 0 33 0;
#X connect 30 0 35 0;
#X connect 31 0 30 0;
#X connect 32 0 36 0;
#X connect 32 1 31 0;
#X connect 33 0 30 1;
#X connect 34 0 33 0;
#X connect 35 0 55 0;
#X connect 37 0 36 1;
#X connect 38 0 54 0;
#X connect 38 1 44 0;
#X connect 39 0 42 0;
#X connect 40 0 43 0;
#X connect 40 0 45 0;
#X connect 41 0 40 0;
#X connect 42 0 46 0;
#X connect 42 1 41 0;
#X connect 43 0 40 1;
#X connect 44 0 43 0;
#X connect 45 0 56 0;
#X connect 47 0 46 1;
#X connect 48 0 11 0;
#X connect 49 0 26 0;
#X connect 50 0 28 0;
#X connect 51 0 38 0;
#X connect 52 0 11 0;
#X connect 52 0 28 0;
#X connect 52 0 26 0;
#X connect 52 0 38 0;
#X connect 53 0 29 0;
#X connect 54 0 39 0;
#X connect 55 0 37 0;
#X connect 56 0 47 0;
#X restore 410 141 pd tuning;
#X connect 0 0 1 0;
#X connect 1 0 7 0;
#X connect 2 0 1 0;
#X connect 3 0 5 0;
#X connect 4 0 5 0;
#X connect 5 0 8 0;
#X connect 6 0 3 0;
#X connect 6 0 0 0;
#X connect 6 0 4 0;
#X connect 6 0 2 0;
#X connect 7 0 16 0;
#X connect 8 0 17 0;
#X connect 9 0 16 0;
#X connect 10 0 17 0;
#X connect 11 0 10 1;
#X connect 11 0 9 1;
#X connect 12 0 8 1;
#X connect 13 0 7 1;
#X connect 14 0 6 0;
#X connect 14 0 9 0;
#X connect 15 0 6 0;
#X connect 15 0 10 0;
#X connect 18 0 22 0;
#X connect 19 0 23 0;
#X connect 20 0 25 0;
#X connect 21 0 24 0;
#X connect 22 0 26 0;
#X connect 23 0 27 0;
#X connect 24 0 29 0;
#X connect 25 0 28 0;
#X restore 382 772 pd vfreeverb~;
#X obj 720 355 readsf~ 2;
#X obj 648 95 bng 15 250 50 0 empty empty empty 17 7 0 10 -262144 -1
-1;
#X obj 421 352 + 10;
#X msg 684 681 1.8;
#X text 60 13 (C) thomas kjelsrud;
#X msg 475 61 100;
#X msg 689 294 open \$1.wav \, 1;
#X obj 708 591 loadbang;
#X text 723 16 base bpm;
#X obj 557 209 bng 15 250 50 0 empty empty empty 17 7 0 10 -262144
-1 -1;
#X obj 667 65 s time;
#X obj 602 210 bng 15 250 50 0 empty empty empty 17 7 0 10 -262144
-1 -1;
#X text 520 282 rytmic element;
#X text 838 322 pad element;
#X text 47 363 noise element;
#X obj 514 201 bng 15 250 50 0 empty empty empty 17 7 0 10 -262144
-1 -1;
#X obj 487 298 bng 15 250 50 0 empty empty empty 17 7 0 10 -262144
-1 -1;
#N canvas 18 23 450 300 srand 0;
#X obj 169 89 inlet;
#X obj 166 268 outlet;
#X floatatom 250 130 5 0 0 0 - - -;
#X obj 253 95 inlet;
#X floatatom 199 194 5 0 0 0 - - -;
#X obj 201 160 random;
#X obj 186 228 sel 0;
#X connect 0 0 5 0;
#X connect 2 0 5 1;
#X connect 3 0 2 0;
#X connect 4 0 6 0;
#X connect 5 0 4 0;
#X connect 6 0 1 0;
#X restore 486 255 pd srand;
#N canvas 511 113 929 725 rytm 0;
#X obj 107 114 inlet;
#X obj 241 69 inlet;
#X text 121 90 light;
#X text 274 105 bam;
#X obj 342 517 outlet~;
#X obj 186 519 outlet~;
#X obj 337 313 r mixRytm;
#X obj 125 408 *~;
#X obj 283 382 *~;
#X obj 1 107 noise~;
#X obj 58 292 fade;
#X obj 114 356 bp~;
#X obj 208 350 bp~;
#X obj 210 213 osc~;
#X obj 223 181 mtof;
#X obj 249 278 fade;
#X msg 295 217 0.2 10 \, 0 500 60;
#X obj 206 304 *~ 2;
#X obj 209 247 bp~ 80 4;
#X obj 97 189 random 8000;
#X floatatom 107 257 5 0 0 0 - - -;
#X msg 155 282 3;
#X msg 54 224 0.2 10 \, 0 100 10;
#X obj 183 115 r bassnote;
#X floatatom 209 141 5 0 0 0 - - -;
#X connect 0 0 22 0;
#X connect 0 0 21 0;
#X connect 0 0 19 0;
#X connect 1 0 16 0;
#X connect 6 0 7 1;
#X connect 6 0 8 1;
#X connect 7 0 5 0;
#X connect 8 0 4 0;
#X connect 9 0 10 0;
#X connect 10 0 11 0;
#X connect 10 0 12 0;
#X connect 11 0 7 0;
#X connect 12 0 8 0;
#X connect 13 0 18 0;
#X connect 14 0 13 0;
#X connect 15 0 17 0;
#X connect 16 0 15 1;
#X connect 17 0 8 0;
#X connect 17 0 7 0;
#X connect 18 0 15 0;
#X connect 19 0 20 0;
#X connect 20 0 11 1;
#X connect 20 0 12 1;
#X connect 21 0 12 2;
#X connect 21 0 11 2;
#X connect 22 0 10 1;
#X connect 23 0 24 0;
#X connect 24 0 14 0;
#X restore 496 453 pd rytm;
#X obj 805 61 s mixRytm;
#X obj 43 96 loadbang;
#X obj 212 231 bng 15 250 50 0 empty empty empty 17 7 0 10 -262144
-1 -1;
#X obj 75 189 bpmtime;
#X obj 94 145 bng 15 250 50 0 empty empty empty 17 7 0 10 -262144 -1
-1;
#X obj 545 154 bpmtime;
#X obj 160 351 fade;
#X obj 78 221 bng 15 250 50 0 empty empty empty 17 7 0 10 -262144 -1
-1;
#X obj 55 250 selrand 2;
#X obj 267 257 selrand 2;
#X obj 228 348 fade;
#X obj 545 630 bpmtime;
#X obj 604 599 bng 15 250 50 0 empty empty empty 17 7 0 10 -262144
-1 -1;
#X obj 369 720 fade;
#X obj 441 729 fade;
#X msg 711 717 0.2;
#X msg 728 751 0.4;
#X obj 283 401 random;
#X obj 336 401 random;
#X floatatom 278 428 5 0 0 0 - - -;
#X floatatom 336 424 5 0 0 0 - - -;
#X obj 434 318 * 20;
#X obj 162 476 vcf~;
#X obj 218 474 vcf~;
#X obj 176 390 random 4;
#X floatatom 181 442 5 0 0 0 - - -;
#X obj 271 493 /;
#X obj 302 499 /;
#X obj 465 658 bng 15 250 50 0 empty empty empty 17 7 0 10 -262144
-1 -1;
#X obj 455 630 selrand 2;
#X msg 432 684 0.8 1000 \, 0 2000 2000;
#X obj 179 415 + 1;
#X msg 646 23 60000 54;
#X msg 662 646 1;
#X obj 368 589 * 20;
#X obj 656 271 + 1;
#X obj 650 246 random 13;
#X obj 194 651 vcf~;
#X obj 288 642 vcf~;
#X msg 508 583 3;
#X obj 725 228 s dlytime;
#X obj 734 58 r time;
#X obj 750 94 /;
#X floatatom 684 205 5 0 0 0 - - -;
#X obj 728 190 *;
#X floatatom 751 157 5 0 0 0 - - -;
#X floatatom 675 175 5 0 0 0 - - -;
#X obj 641 147 int;
#X obj 783 130 / 4;
#X floatatom 586 433 5 0 0 0 - - -;
#X obj 579 392 random 2;
#X obj 627 358 random 2;
#X floatatom 644 427 5 0 0 0 - - -;
#X obj 645 465 * 0.6;
#X obj 570 533 *~;
#X obj 569 504 *~;
#X obj 599 465 * 0.6;
#X obj 429 138 s slider1;
#X obj 793 617 r slider1;
#X obj 765 646 / 127;
#X obj 639 124 / 8;
#X obj 638 174 + 1;
#X msg 812 9 0.2;
#X obj 521 358 bng 15 250 50 0 empty empty empty 17 7 0 10 -262144
-1 -1;
#N canvas 18 23 450 300 srand 0;
#X obj 169 89 inlet;
#X obj 166 268 outlet;
#X floatatom 250 130 5 0 0 0 - - -;
#X obj 253 95 inlet;
#X floatatom 199 194 5 0 0 0 - - -;
#X obj 201 160 random;
#X obj 186 228 sel 0;
#X connect 0 0 5 0;
#X connect 2 0 5 1;
#X connect 3 0 2 0;
#X connect 4 0 6 0;
#X connect 5 0 4 0;
#X connect 6 0 1 0;
#X restore 520 315 pd srand;
#X msg 512 227 5;
#X msg 556 248 2;
#X msg 256 297 0.1 4000 \, 0 4000 2000;
#X msg 9 299 0.1 4000 \, 0 4000 2000;
#X obj 977 60 r slider1;
#X obj 949 89 / 127;
#X floatatom 960 129 5 0 0 0 - - -;
#X obj 958 176 * 4;
#X obj 962 204 int;
#X floatatom 955 239 5 0 0 0 - - -;
#X floatatom 965 367 5 0 0 0 - - -;
#X obj 947 274 sel 1 2 3 4;
#X msg 1101 330 52;
#X obj 971 418 s bassnote;
#X msg 979 323 38;
#X msg 1035 330 43;
#X obj 190 777 clip~ -0.5 0.5;
#X obj 367 810 clip~ -0.5 0.5;
#X floatatom 767 689 5 0 0 0 - - -;
#X msg 933 320 34;
#X connect 1 0 3 0;
#X connect 2 0 5 0;
#X connect 3 0 39 0;
#X connect 4 0 5 1;
#X connect 4 0 3 1;
#X connect 5 0 43 0;
#X connect 6 0 7 0;
#X connect 6 0 19 0;
#X connect 6 0 65 0;
#X connect 6 0 98 0;
#X connect 6 0 95 0;
#X connect 6 0 38 0;
#X connect 7 0 4 0;
#X connect 8 0 114 0;
#X connect 8 1 115 0;
#X connect 9 0 71 0;
#X connect 10 0 70 0;
#X connect 11 0 54 0;
#X connect 11 0 67 0;
#X connect 11 0 90 0;
#X connect 11 0 93 0;
#X connect 12 0 50 1;
#X connect 12 0 51 1;
#X connect 13 0 8 0;
#X connect 13 1 8 1;
#X connect 14 0 88 0;
#X connect 14 1 87 0;
#X connect 15 0 38 0;
#X connect 16 0 12 0;
#X connect 17 0 13 3;
#X connect 19 0 11 0;
#X connect 20 0 14 0;
#X connect 21 0 49 0;
#X connect 21 0 48 0;
#X connect 21 0 17 0;
#X connect 21 0 66 0;
#X connect 21 0 44 0;
#X connect 21 0 72 0;
#X connect 23 0 99 0;
#X connect 23 0 97 0;
#X connect 25 0 69 0;
#X connect 25 0 83 0;
#X connect 25 0 84 0;
#X connect 29 0 31 0;
#X connect 30 0 32 0;
#X connect 30 0 50 0;
#X connect 30 0 51 0;
#X connect 31 0 30 0;
#X connect 32 0 10 0;
#X connect 32 1 9 0;
#X connect 34 0 36 0;
#X connect 35 0 42 0;
#X connect 36 2 40 0;
#X connect 36 2 35 0;
#X connect 36 3 57 0;
#X connect 37 0 36 0;
#X connect 38 0 29 0;
#X connect 38 1 23 0;
#X connect 38 2 25 0;
#X connect 39 0 55 0;
#X connect 40 0 41 0;
#X connect 41 0 101 0;
#X connect 42 0 100 0;
#X connect 43 0 56 0;
#X connect 44 2 62 0;
#X connect 45 0 44 0;
#X connect 46 0 13 0;
#X connect 47 0 13 1;
#X connect 48 0 13 4;
#X connect 49 0 13 5;
#X connect 50 0 52 0;
#X connect 51 0 53 0;
#X connect 52 0 55 1;
#X connect 52 0 59 0;
#X connect 53 0 56 1;
#X connect 53 0 60 0;
#X connect 54 0 16 0;
#X connect 55 0 10 0;
#X connect 56 0 9 0;
#X connect 57 0 64 0;
#X connect 58 0 55 2;
#X connect 58 0 56 2;
#X connect 58 0 59 1;
#X connect 58 0 60 1;
#X connect 59 0 10 1;
#X connect 60 0 9 1;
#X connect 61 0 63 0;
#X connect 62 0 61 0;
#X connect 63 0 47 1;
#X connect 63 0 46 1;
#X connect 64 0 58 0;
#X connect 65 0 24 0;
#X connect 66 0 13 2;
#X connect 67 0 70 1;
#X connect 67 0 71 1;
#X connect 68 0 20 0;
#X connect 69 0 68 0;
#X connect 70 0 8 0;
#X connect 70 0 46 0;
#X connect 71 0 8 1;
#X connect 71 0 47 0;
#X connect 72 0 71 2;
#X connect 72 0 70 2;
#X connect 74 0 75 0;
#X connect 74 0 75 1;
#X connect 75 0 81 0;
#X connect 76 0 73 0;
#X connect 77 0 76 0;
#X connect 78 0 77 1;
#X connect 79 0 77 0;
#X connect 80 0 94 0;
#X connect 81 0 78 0;
#X connect 82 0 89 0;
#X connect 83 0 82 0;
#X connect 84 0 85 0;
#X connect 85 0 86 0;
#X connect 86 0 87 1;
#X connect 87 0 9 0;
#X connect 88 0 10 0;
#X connect 89 0 88 1;
#X connect 91 0 92 0;
#X connect 92 0 116 0;
#X connect 93 0 80 0;
#X connect 94 0 79 0;
#X connect 95 0 33 0;
#X connect 96 0 32 1;
#X connect 97 0 96 0;
#X connect 98 0 31 1;
#X connect 99 0 97 1;
#X connect 100 0 43 1;
#X connect 101 0 39 1;
#X connect 102 0 103 0;
#X connect 103 0 104 0;
#X connect 104 0 105 0;
#X connect 105 0 106 0;
#X connect 106 0 107 0;
#X connect 107 0 109 0;
#X connect 108 0 111 0;
#X connect 109 0 117 0;
#X connect 109 1 112 0;
#X connect 109 2 113 0;
#X connect 109 3 110 0;
#X connect 110 0 108 0;
#X connect 112 0 108 0;
#X connect 113 0 108 0;
#X connect 114 0 0 0;
#X connect 115 0 0 1;
#X connect 117 0 108 0;
