#N canvas 0 23 450 300 12;
#X obj 185 25 r time;
#X obj 153 58 /;
#X floatatom 156 91 5 0 0 0 - - -;
#X obj 124 129 metro;
#X obj 97 189 bng 15 250 50 0 empty empty empty 17 7 0 10 -262144 -1
-1;
#X obj 50 70 inlet;
#X obj 100 401 outlet;
#X obj 170 353 bng 15 250 50 0 empty empty empty 17 7 0 10 -262144
-1 -1;
#X floatatom 206 210 5 0 0 0 - - -;
#X obj 233 180 int;
#X obj 184 177 +;
#X msg 237 101 1;
#X floatatom 205 265 5 0 0 0 - - -;
#X obj 205 240 % 4;
#X obj 205 306 sel 0;
#X obj 171 401 outlet;
#X floatatom 275 277 5 0 0 0 - - -;
#X obj 282 319 sel 0;
#X obj 283 370 bng 15 250 50 0 empty empty empty 17 7 0 10 -262144
-1 -1;
#X obj 261 407 outlet;
#X obj 275 245 % 16;
#X obj 27 153 metro;
#X obj 34 255 outlet;
#X obj 41 212 bng 15 250 50 0 empty empty empty 17 7 0 10 -262144 -1
-1;
#X obj 69 125 / 4;
#X connect 0 0 1 0;
#X connect 0 0 1 1;
#X connect 0 0 11 0;
#X connect 1 0 2 0;
#X connect 2 0 3 1;
#X connect 2 0 24 0;
#X connect 3 0 4 0;
#X connect 3 0 10 0;
#X connect 4 0 6 0;
#X connect 5 0 3 0;
#X connect 5 0 21 0;
#X connect 7 0 15 0;
#X connect 8 0 13 0;
#X connect 8 0 20 0;
#X connect 9 0 10 1;
#X connect 10 0 8 0;
#X connect 10 0 9 0;
#X connect 11 0 10 0;
#X connect 12 0 14 0;
#X connect 13 0 12 0;
#X connect 14 0 7 0;
#X connect 16 0 17 0;
#X connect 17 0 18 0;
#X connect 18 0 19 0;
#X connect 20 0 16 0;
#X connect 21 0 23 0;
#X connect 23 0 22 0;
#X connect 24 0 21 1;
