#N canvas 848 125 456 567 12;
#X obj 43 51 inlet~;
#X obj 100 381 vline~;
#X obj 53 408 *~;
#X obj 48 451 outlet~;
#X obj 142 52 inlet;
#X connect 0 0 2 0;
#X connect 1 0 2 1;
#X connect 2 0 3 0;
#X connect 4 0 1 0;
