#N canvas 0 23 450 300 12;
#X obj 169 89 inlet;
#X obj 166 268 outlet;
#X floatatom 199 194 5 0 0 0 - - -;
#X obj 186 228 sel 0;
#X obj 201 160 random \$1;
#X connect 0 0 4 0;
#X connect 2 0 3 0;
#X connect 3 0 1 0;
#X connect 4 0 2 0;
