#N canvas 973 227 1083 881 12;
#X obj 243 49 inlet;
#X obj 219 831 outlet~;
#X obj 340 824 outlet~;
#X obj 86 269 metro;
#X obj 21 280 noise~;
#X obj 74 418 bp~;
#X msg 64 221 1000;
#X msg 111 339 5;
#X obj 284 259 bng 15 250 50 0 empty empty empty 17 7 0 10 #fcfcfc #000000 #000000;
#X obj 172 513 vline~;
#X obj 305 513 vline~;
#X obj 153 683 *~;
#X obj 274 688 *~;
#X msg 204 142 8000;
#X msg 765 54 3454 5645 6433 6999 600;
#X obj 789 233 unpack 1 2 3 4 5;
#X obj 996 259 t;
#X obj 773 304 noise~;
#X obj 696 345 bp~ 440 80;
#X obj 799 360 bp~ 440 80;
#X obj 898 369 bp~ 440 80;
#X obj 978 377 bp~ 440 80;
#X obj 459 514 vline~;
#X obj 592 514 vline~;
#X obj 355 685 *~;
#X obj 488 686 *~;
#X msg 767 86 2312 2466 3200 5314 380;
#X obj 875 456 *~ 0.2;
#X msg 771 116 1245 1503 2131 2575 100;
#X msg 495 461 0.5 5000 \, 0 9000 4000;
#X msg 664 456 0.5 5000 \, 0 9000 4000;
#X obj 219 168 random 12000;
#X floatatom 154 210 5 0 0 0 - - - 0;
#X text 553 795 Inspiration https://www.moz.ac.at/sem/lehre/lib/pd-sounddesign/tutorial_tea.html, f 71;
#X text 32 30 (c) Thomas Kjelsrud;
#X msg 781 154 527 781 972 1184 70;
#X msg 784 187 221 333 426 527 40;
#X obj 531 129 random 5;
#X msg 151 462 0.5 5000 \, 0 13000 4000;
#X msg 319 460 0.5 5000 \, 0 13000 4000;
#X obj 86 508 *~ 0.2;
#X obj 672 20 sel 0 1 2 3 4;
#X obj 419 78 metro;
#X obj 277 325 random 2;
#X obj 303 406 sel 0 1;
#X obj 393 148 random 24000;
#X floatatom 416 182 5 0 0 0 - - - 0;
#X msg 253 123 800;
#X obj 551 177 random 2;
#X obj 529 291 sel 0 1;
#X obj 338 241 / 12;
#X floatatom 155 285 5 0 0 0 - - - 0;
#X obj 134 382 line;
#X obj 182 315 pack f f;
#X msg 178 351 \$1 \$2;
#X connect 0 0 13 0;
#X connect 0 0 3 0;
#X connect 0 0 42 0;
#X connect 0 0 47 0;
#X connect 0 0 6 0;
#X connect 3 0 7 0;
#X connect 3 0 8 0;
#X connect 4 0 5 0;
#X connect 5 0 40 0;
#X connect 6 0 51 0;
#X connect 7 0 5 2;
#X connect 8 0 31 0;
#X connect 8 0 43 0;
#X connect 9 0 11 1;
#X connect 10 0 12 1;
#X connect 11 0 1 0;
#X connect 12 0 2 0;
#X connect 13 0 32 0;
#X connect 14 0 15 0;
#X connect 15 0 18 1;
#X connect 15 1 19 1;
#X connect 15 2 20 1;
#X connect 15 3 21 1;
#X connect 15 4 16 0;
#X connect 15 4 21 2;
#X connect 15 4 20 2;
#X connect 15 4 19 2;
#X connect 15 4 18 2;
#X connect 17 0 18 0;
#X connect 17 0 19 0;
#X connect 17 0 20 0;
#X connect 17 0 21 0;
#X connect 18 0 27 0;
#X connect 19 0 27 0;
#X connect 20 0 27 0;
#X connect 21 0 27 0;
#X connect 22 0 24 1;
#X connect 23 0 25 1;
#X connect 24 0 1 0;
#X connect 25 0 2 0;
#X connect 26 0 15 0;
#X connect 27 0 25 0;
#X connect 27 0 24 0;
#X connect 28 0 15 0;
#X connect 29 0 22 0;
#X connect 30 0 23 0;
#X connect 31 0 32 0;
#X connect 32 0 3 1;
#X connect 35 0 15 0;
#X connect 36 0 15 0;
#X connect 37 0 41 0;
#X connect 38 0 9 0;
#X connect 39 0 10 0;
#X connect 40 0 11 0;
#X connect 40 0 12 0;
#X connect 41 0 14 0;
#X connect 41 1 26 0;
#X connect 41 2 28 0;
#X connect 41 3 35 0;
#X connect 41 4 36 0;
#X connect 42 0 45 0;
#X connect 42 0 48 0;
#X connect 42 0 37 0;
#X connect 43 0 44 0;
#X connect 44 0 38 0;
#X connect 44 1 39 0;
#X connect 45 0 46 0;
#X connect 46 0 42 1;
#X connect 46 0 50 0;
#X connect 46 0 53 1;
#X connect 47 0 46 0;
#X connect 48 0 49 0;
#X connect 49 0 29 0;
#X connect 49 1 30 0;
#X connect 50 0 51 0;
#X connect 51 0 53 0;
#X connect 52 0 5 1;
#X connect 53 0 54 0;
#X connect 54 0 52 0;
